<svg width="96" height="96" viewBox="0 0 96 96" fill="none" xmlns="http://www.w3.org/2000/svg">
<g clip-path="url(#clip0)">
<path d="M47.9915 95.1748C74.0498 95.1748 95.1743 74.0503 95.1743 47.992C95.1743 21.9336 74.0498 0.809082 47.9915 0.809082C21.9331 0.809082 0.808594 21.9336 0.808594 47.992C0.808594 74.0503 21.9331 95.1748 47.9915 95.1748Z" fill="white"/>
<path fill-rule="evenodd" clip-rule="evenodd" d="M47.9919 1.61807C22.3803 1.61807 1.61807 22.3803 1.61807 47.9919C1.61807 73.6035 22.3803 94.3657 47.9919 94.3657C73.6035 94.3657 94.3657 73.6035 94.3657 47.9919C94.3657 22.3803 73.6035 1.61807 47.9919 1.61807ZM0 47.9919C0 21.4867 21.4867 0 47.9919 0C74.4971 0 95.9838 21.4867 95.9838 47.9919C95.9838 74.4971 74.4971 95.9838 47.9919 95.9838C21.4867 95.9838 0 74.4971 0 47.9919Z" fill="#231F20"/>
<path d="M47.9918 88.8159C70.5382 88.8159 88.8157 70.5385 88.8157 47.9921C88.8157 25.4457 70.5382 7.16821 47.9918 7.16821C25.4454 7.16821 7.16797 25.4457 7.16797 47.9921C7.16797 70.5385 25.4454 88.8159 47.9918 88.8159Z" fill="#009F55"/>
<path fill-rule="evenodd" clip-rule="evenodd" d="M47.9927 8.78619C26.3399 8.78619 8.78692 26.3392 8.78692 47.992C8.78692 69.6447 26.3399 87.1978 47.9927 87.1978C69.6455 87.1978 87.1985 69.6447 87.1985 47.992C87.1985 26.3392 69.6455 8.78619 47.9927 8.78619ZM5.55078 47.992C5.55078 24.5519 24.5527 5.55005 47.9927 5.55005C71.4327 5.55005 90.4346 24.5519 90.4346 47.992C90.4346 71.432 71.4327 90.4339 47.9927 90.4339C24.5527 90.4339 5.55078 71.432 5.55078 47.992Z" fill="#231F20"/>
<path d="M65.6645 66.367C65.2259 66.674 64.6228 66.8823 63.8553 66.992C63.1316 67.1016 62.6053 67.0797 62.2764 66.9262C62.1887 66.8823 62.1009 66.7288 62.0132 66.4657C61.9474 66.1806 61.8597 65.9832 61.7501 65.8736C61.7062 65.8297 61.6514 65.7968 61.5856 65.7749C60.7084 65.2924 59.7655 64.8758 58.7567 64.5249C56.3883 63.6477 53.9432 63.1105 51.4213 62.9131C50.1274 59.821 49.4257 58.1325 49.3161 57.8474C48.5485 55.8957 48.3073 54.7772 48.5924 54.4922L73.3288 29.7557C73.4823 29.6022 73.9538 29.6351 74.7433 29.8544C75.5547 30.0956 76.07 30.3478 76.2893 30.611C76.5305 30.896 76.8814 31.5978 77.3419 32.7162C77.8244 33.8127 78.3178 34.6131 78.8222 35.1175C79.4801 35.7753 80.6314 36.3345 82.2761 36.7951C83.8111 37.1898 84.6554 37.5516 84.8089 37.8806C85.1598 38.5823 85.3572 39.9419 85.401 41.9595C85.4887 43.977 85.3681 45.2379 85.0392 45.7423C84.8857 45.9835 84.3374 46.1151 83.3945 46.137C82.4734 46.1809 81.8704 46.0603 81.5853 45.7752C81.3441 45.534 81.2015 45.3256 81.1577 45.1502C81.1138 44.9748 81.059 44.8761 80.9932 44.8542C80.0283 44.2401 79.0853 43.7138 78.1643 43.2752C75.9933 42.2007 74.1622 41.6415 72.671 41.5976L67.3092 46.9594C68.4715 47.3322 69.8749 47.9243 71.5197 48.7357C71.9144 49.0427 72.1556 50.2707 72.2433 52.4198C72.3749 54.5689 72.2433 55.8408 71.8486 56.2356C71.6074 56.4768 71.1688 56.6084 70.5328 56.6303C69.8969 56.6522 69.3925 56.5645 69.0197 56.3671C68.8004 56.1478 68.3947 55.786 67.8026 55.2816C66.8158 54.6018 64.6448 53.8343 61.2895 52.979L57.8357 56.4329C58.8883 56.6961 60.2369 57.1237 61.8816 57.7158C63.5702 58.3079 64.5461 58.7355 64.8092 58.9987C65.1162 59.3057 65.4013 60.5557 65.6645 62.7486C65.9715 64.9416 65.9715 66.1477 65.6645 66.367Z" fill="white"/>
<path fill-rule="evenodd" clip-rule="evenodd" d="M73.7558 30.4733L49.2867 54.9423C49.2902 55.0317 49.3071 55.1717 49.3508 55.3742C49.4575 55.869 49.6908 56.5885 50.0694 57.5512L50.0705 57.5541L50.0716 57.5569C50.1705 57.8141 50.8026 59.3364 51.9793 62.1495C54.3985 62.3812 56.7495 62.9193 59.0306 63.7634C60.0576 64.1211 61.0231 64.5458 61.9261 65.0387C62.0672 65.0968 62.2035 65.1823 62.3226 65.3015C62.5849 65.5637 62.7146 65.9241 62.7906 66.2358C62.9652 66.2598 63.2638 66.2634 63.7345 66.192L63.7379 66.1915L63.7413 66.191C64.3322 66.1066 64.7585 65.9645 65.0564 65.7952C65.0731 65.6918 65.0861 65.5308 65.0861 65.2979C65.0861 64.7513 65.0155 63.9453 64.8637 62.8607L64.8626 62.8529L64.8616 62.845C64.7314 61.7597 64.5983 60.931 64.465 60.3463C64.3981 60.0531 64.3352 59.8394 64.2796 59.6933C64.2528 59.6229 64.2327 59.5815 64.2218 59.5607C64.1997 59.5454 64.1569 59.5173 64.0847 59.4771C63.9605 59.4078 63.7865 59.3227 63.5557 59.2216C63.0948 59.0196 62.4504 58.7724 61.6144 58.4792L61.6112 58.4781L61.608 58.477C59.9755 57.8892 58.6553 57.4716 57.6399 57.2178L56.2536 56.8712L61.0436 52.0813L61.4898 52.195C63.1806 52.626 64.5876 53.0385 65.7043 53.4333C66.8073 53.8233 67.6785 54.2134 68.262 54.6153L68.2961 54.6388L68.3277 54.6657C68.843 55.1047 69.2346 55.4503 69.4887 55.6939C69.6969 55.7787 70.0209 55.8384 70.5054 55.8217C70.7788 55.8123 70.974 55.78 71.1067 55.7402C71.2043 55.7109 71.2508 55.6828 71.2683 55.6703C71.2765 55.6557 71.298 55.6145 71.3243 55.5314C71.3679 55.3932 71.4094 55.1884 71.439 54.9023C71.4982 54.3301 71.5009 53.5251 71.4362 52.4692L71.4357 52.461L71.4354 52.4528C71.3922 51.3947 71.3122 50.5977 71.2032 50.0429C71.1486 49.7649 71.0914 49.5724 71.0399 49.4482C71.0296 49.4233 71.0204 49.4034 71.0127 49.3877C69.4535 48.6245 68.1388 48.0749 67.0625 47.7297L65.8001 47.3248L72.3462 40.7786L72.6952 40.7889C74.3519 40.8376 76.3024 41.4513 78.5181 42.5474C79.4564 42.9945 80.4118 43.5271 81.3842 44.1438C81.611 44.2623 81.7342 44.4489 81.7913 44.5517C81.864 44.6824 81.9087 44.8205 81.9389 44.9377C81.9423 44.9444 81.9503 44.9588 81.9656 44.9811C82.0004 45.0321 82.06 45.1051 82.1551 45.2004C82.1555 45.2 82.2143 45.2469 82.4105 45.2861C82.6236 45.3287 82.9326 45.3491 83.3564 45.3289L83.3663 45.3284L83.3761 45.3282C83.823 45.3178 84.1308 45.2816 84.3245 45.2352C84.3568 45.2274 84.383 45.22 84.4039 45.2135C84.4565 45.0797 84.5264 44.8116 84.5714 44.3412C84.6267 43.7632 84.6363 42.9851 84.5932 41.9946L84.5928 41.9858L84.5926 41.977C84.5711 40.9875 84.5122 40.1787 84.4199 39.5428C84.3328 38.943 84.2221 38.5425 84.1124 38.2986C84.1099 38.2968 84.1071 38.2949 84.1042 38.2928C84.0405 38.2487 83.9262 38.1849 83.7423 38.1061C83.3758 37.949 82.8268 37.7719 82.075 37.5786L82.0667 37.5764L82.0584 37.5741C80.3747 37.1027 79.0584 36.4974 78.2505 35.6895C77.643 35.082 77.101 34.1765 76.6019 33.042L76.598 33.0331L76.5943 33.0242C76.368 32.4746 76.1735 32.0394 76.0102 31.7128C75.8393 31.3709 75.7266 31.1979 75.6721 31.1335L75.6702 31.1312L75.6685 31.1291C75.6685 31.1292 75.6521 31.1108 75.6052 31.0779C75.5559 31.0434 75.4839 31.0004 75.3832 30.9511C75.1811 30.8522 74.8976 30.7444 74.5202 30.6319C74.1605 30.5323 73.912 30.4859 73.7558 30.4733ZM84.1425 38.3225C84.1424 38.3225 84.141 38.3213 84.1386 38.3188C84.1414 38.3213 84.1426 38.3225 84.1425 38.3225ZM84.4709 45.1881C84.4709 45.1882 84.4708 45.1882 84.4707 45.1882C84.4723 45.1874 84.4724 45.1874 84.4709 45.1881ZM65.0305 65.9043C65.0303 65.9039 65.032 65.8981 65.0365 65.8882C65.033 65.8999 65.0308 65.9048 65.0305 65.9043ZM49.2899 54.8477C49.2901 54.8479 49.2897 54.8524 49.2879 54.8604C49.2888 54.8514 49.2897 54.8474 49.2899 54.8477ZM73.8543 28.8581C74.1696 28.8801 74.5453 28.9596 74.9603 29.0748L74.9673 29.0768L74.9743 29.0789C75.4048 29.2068 75.7824 29.345 76.0944 29.4977C76.3934 29.644 76.6935 29.8328 76.9092 30.0905C77.0953 30.3111 77.2781 30.6305 77.4575 30.9892C77.6441 31.3624 77.854 31.8342 78.0867 32.399C78.551 33.4526 78.9945 34.1452 79.3947 34.5453C79.9017 35.0524 80.8856 35.5646 82.4865 36.0137C83.2659 36.2144 83.9037 36.4148 84.3797 36.6188C84.618 36.7209 84.8395 36.8339 85.0252 36.9625C85.1951 37.0801 85.409 37.2607 85.5368 37.5264C85.7673 37.9907 85.9185 38.603 86.0212 39.3103C86.1259 40.032 86.1876 40.9088 86.2101 41.9331C86.2543 42.9562 86.2473 43.8143 86.1821 44.4953C86.1204 45.1408 85.9973 45.7527 85.7194 46.181C85.4609 46.5831 85.0067 46.7355 84.7021 46.8086C84.3499 46.8931 83.9155 46.9337 83.4235 46.9456C82.9302 46.9685 82.4806 46.9502 82.0932 46.8727C81.7117 46.7965 81.314 46.6476 81.0137 46.3472C80.7663 46.0999 80.5135 45.7927 80.3986 45.4351C79.5147 44.8804 78.6542 44.4043 77.8169 44.0056L77.8114 44.003L77.8058 44.0003C75.8591 43.0367 74.2603 42.5331 72.9873 42.4258L68.7854 46.6277C69.7117 46.9884 70.7433 47.4503 71.878 48.0101L71.9518 48.0465L72.0168 48.097C72.2767 48.2992 72.4331 48.5835 72.5348 48.8289C72.6423 49.0885 72.7249 49.3949 72.7909 49.731C72.9228 50.4026 73.0072 51.2914 73.0518 52.3787C73.1182 53.4682 73.1207 54.3708 73.0485 55.0688C73.0123 55.4186 72.9552 55.7402 72.8672 56.0186C72.7823 56.2876 72.6493 56.5794 72.4211 56.8076C71.9527 57.276 71.2443 57.4152 70.5611 57.4388C69.8502 57.4633 69.1872 57.371 68.6416 57.0821L68.5341 57.0252L68.4481 56.9392C68.2579 56.749 67.8857 56.4154 67.3118 55.9259C66.9035 55.6525 66.2051 55.3266 65.165 54.9588C64.2063 54.6199 62.9981 54.2594 61.5354 53.8778L59.3869 56.0262C60.1994 56.2727 61.122 56.5823 62.153 56.9534C63.0041 57.2519 63.6908 57.5142 64.2051 57.7395C64.4623 57.8522 64.6871 57.9604 64.8726 58.0638C65.0451 58.16 65.2349 58.2797 65.3817 58.4266C65.5835 58.6283 65.7079 58.897 65.792 59.1181C65.8845 59.3612 65.9668 59.6546 66.0425 59.9865C66.1939 60.6502 66.3346 61.5403 66.4672 62.6442C66.6217 63.749 66.7042 64.6399 66.7042 65.2979C66.7042 65.6247 66.6842 65.9292 66.6285 66.1878C66.5822 66.4029 66.4725 66.7843 66.1352 67.0253L66.132 67.0275L66.1289 67.0297C65.551 67.4343 64.8131 67.6721 63.9735 67.7923C63.2252 67.9054 62.4933 67.92 61.9347 67.6593L61.9248 67.6547L61.915 67.6498C61.6536 67.5191 61.5107 67.2983 61.4428 67.1795C61.362 67.0382 61.2985 66.8785 61.2461 66.7215L61.234 66.685L61.2253 66.6475C61.2074 66.5696 61.1899 66.5124 61.1752 66.4722C60.3462 66.0179 59.452 65.6231 58.4913 65.289L58.4837 65.2863L58.4761 65.2835C56.1779 64.4323 53.8061 63.9112 51.3586 63.7196L50.8661 63.6811L50.6754 63.2253C49.39 60.1536 48.6814 58.4488 48.5626 58.1408C48.1742 57.153 47.9034 56.3383 47.7691 55.7153C47.7024 55.4063 47.6606 55.1061 47.669 54.8369C47.6766 54.5959 47.7283 54.2124 48.0207 53.92L72.7572 29.1836C72.9516 28.9892 73.184 28.9133 73.3507 28.8811C73.5225 28.848 73.6968 28.8471 73.8543 28.8581Z" fill="#231F20"/>
<path d="M31.0248 66.4134C31.4652 66.7217 32.0707 66.9309 32.8414 67.0409C33.568 67.151 34.0965 67.129 34.4268 66.9749C34.5148 66.9309 34.6029 66.7767 34.691 66.5125C34.7571 66.2262 34.8451 66.0281 34.9552 65.918C34.9993 65.8739 35.0543 65.8409 35.1204 65.8189C36.0011 65.3345 36.948 64.9161 37.9609 64.5638C40.3389 63.683 42.7941 63.1435 45.3263 62.9454C46.6254 59.8407 47.33 58.1452 47.4401 57.8589C48.2108 55.8992 48.453 54.7762 48.1668 54.49L23.3291 29.6523C23.1749 29.4982 22.7015 29.5312 21.9088 29.7514C21.0941 29.9936 20.5767 30.2468 20.3565 30.5111C20.1143 30.7973 19.762 31.5019 19.2996 32.6249C18.8151 33.7259 18.3197 34.5296 17.8133 35.036C17.1527 35.6966 15.9967 36.2581 14.3452 36.7205C12.8039 37.1168 11.9562 37.4802 11.802 37.8104C11.4497 38.5151 11.2515 39.8803 11.2075 41.906C11.1194 43.9318 11.2405 45.1979 11.5708 45.7043C11.725 45.9465 12.2754 46.0787 13.2223 46.1007C14.1471 46.1447 14.7526 46.0236 15.0388 45.7374C15.2811 45.4952 15.4242 45.286 15.4682 45.1098C15.5123 44.9337 15.5673 44.8346 15.6334 44.8126C16.6022 44.196 17.549 43.6676 18.4738 43.2272C20.6537 42.1482 22.4923 41.5867 23.9897 41.5427L29.3734 46.9264C28.2063 47.3007 26.7971 47.8952 25.1457 48.71C24.7493 49.0182 24.5071 50.2513 24.419 52.4092C24.2869 54.5671 24.419 55.8442 24.8154 56.2405C25.0576 56.4827 25.498 56.6149 26.1365 56.6369C26.7751 56.6589 27.2815 56.5708 27.6559 56.3726C27.876 56.1524 28.2834 55.7891 28.8779 55.2827C29.8688 54.6001 32.0487 53.8294 35.4176 52.9707L38.8857 56.4387C37.8287 56.7029 36.4746 57.1323 34.8231 57.7268C33.1276 58.3213 32.1478 58.7507 31.8835 59.0149C31.5753 59.3232 31.289 60.5783 31.0248 62.7802C30.7165 64.9822 30.7165 66.1932 31.0248 66.4134Z" fill="white"/>
<path fill-rule="evenodd" clip-rule="evenodd" d="M23.3074 28.7743C23.4748 28.8066 23.7081 28.8828 23.9033 29.078L48.741 53.9157C49.0346 54.2093 49.0866 54.5943 49.0942 54.8363C49.1026 55.1066 49.0607 55.408 48.9937 55.7183C48.8588 56.3439 48.5869 57.1619 48.1969 58.1539C48.0775 58.4634 47.366 60.175 46.0755 63.2591L45.884 63.7167L45.3895 63.7554C42.932 63.9477 40.5505 64.471 38.2428 65.3257L38.2352 65.3285L38.2276 65.3312C37.263 65.6667 36.3652 66.063 35.5328 66.5192C35.518 66.5596 35.5004 66.617 35.4824 66.6953L35.4737 66.7329L35.4615 66.7695C35.4089 66.9272 35.3452 67.0875 35.264 67.2294C35.1959 67.3487 35.0523 67.5704 34.7899 67.7016L34.7801 67.7065L34.7701 67.7111C34.2092 67.9729 33.4742 67.9583 32.7228 67.8447C31.8799 67.7239 31.1391 67.4852 30.5588 67.079L30.5556 67.0768L30.5525 67.0745C30.2137 66.8326 30.1036 66.4497 30.0571 66.2336C30.0012 65.974 29.9811 65.6682 29.9811 65.3401C29.9811 64.6794 30.0639 63.7849 30.219 62.6757C30.3522 61.5671 30.4935 60.6734 30.6455 60.0069C30.7215 59.6737 30.8042 59.3791 30.897 59.135C30.9815 58.913 31.1064 58.6432 31.309 58.4406C31.4564 58.2932 31.647 58.173 31.8202 58.0764C32.0065 57.9725 32.2322 57.8639 32.4904 57.7508C33.0068 57.5245 33.6964 57.2612 34.5509 56.9615C35.5861 56.5889 36.5126 56.278 37.3283 56.0305L35.1711 53.8732C33.7024 54.2564 32.4892 54.6184 31.5266 54.9587C30.4823 55.3279 29.781 55.6552 29.371 55.9298C28.7948 56.4212 28.421 56.7563 28.2301 56.9472L28.1437 57.0335L28.0358 57.0907C27.4879 57.3807 26.8222 57.4735 26.1084 57.4488C25.4224 57.4252 24.7112 57.2854 24.2408 56.815C24.0117 56.586 23.8782 56.2929 23.7929 56.0229C23.7046 55.7433 23.6472 55.4204 23.6109 55.0691C23.5384 54.3683 23.5408 53.4619 23.6075 52.3679C23.6524 51.2762 23.737 50.3838 23.8695 49.7095C23.9358 49.3721 24.0187 49.0644 24.1267 48.8037C24.2288 48.5573 24.3858 48.2718 24.6468 48.0688L24.712 48.0181L24.7861 47.9815C25.9255 47.4195 26.9613 46.9557 27.8914 46.5935L23.6723 42.3744C22.3941 42.4822 20.7888 42.9878 18.834 43.9553L18.8285 43.9581L18.8229 43.9607C17.9822 44.361 17.1182 44.839 16.2307 45.396C16.1153 45.755 15.8614 46.0636 15.6131 46.3119C15.3115 46.6135 14.9122 46.763 14.5292 46.8396C14.1402 46.9174 13.6888 46.9357 13.1934 46.9127C12.6994 46.9008 12.2632 46.86 11.9095 46.7751C11.6037 46.7017 11.1477 46.5487 10.8882 46.145C10.6091 45.715 10.4855 45.1006 10.4235 44.4524C10.3581 43.7686 10.351 42.907 10.3954 41.8796C10.418 40.8512 10.4799 39.9709 10.5851 39.2462C10.6882 38.5359 10.8401 37.921 11.0715 37.4548C11.1998 37.1881 11.4146 37.0068 11.5851 36.8887C11.7716 36.7596 11.994 36.6462 12.2333 36.5437C12.7112 36.3388 13.3516 36.1376 14.1342 35.936C15.7417 35.4852 16.7296 34.9708 17.2387 34.4617C17.6405 34.0599 18.0858 33.3645 18.552 32.3066C18.7857 31.7395 18.9965 31.2658 19.1839 30.891C19.3639 30.5309 19.5475 30.2101 19.7344 29.9886C19.951 29.7298 20.2523 29.5403 20.5525 29.3934C20.8658 29.2401 21.245 29.1014 21.6772 28.9729L21.6842 28.9708L21.6913 28.9688C22.108 28.8531 22.4851 28.7733 22.8017 28.7512C22.96 28.7402 23.1349 28.741 23.3074 28.7743ZM22.1332 30.5323C21.7542 30.6452 21.4696 30.7534 21.2666 30.8527C21.1654 30.9023 21.0932 30.9454 21.0437 30.9801C20.9967 31.0131 20.9802 31.0316 20.9801 31.0315L20.9784 31.0336L20.9765 31.0359C20.9218 31.1005 20.8087 31.2743 20.637 31.6176C20.4731 31.9455 20.2778 32.3825 20.0506 32.9343L20.0469 32.9433L20.043 32.9522C19.5417 34.0913 18.9975 35.0005 18.3875 35.6105C17.5763 36.4217 16.2547 37.0295 14.5641 37.5029L14.5558 37.5052L14.5474 37.5073C13.7926 37.7014 13.2413 37.8793 12.8733 38.037C12.6886 38.1161 12.5739 38.1802 12.5099 38.2245C12.507 38.2266 12.5042 38.2285 12.5017 38.2303C12.3915 38.4752 12.2803 38.8774 12.1929 39.4796C12.1002 40.1181 12.0411 40.9302 12.0195 41.9238L12.0193 41.9326L12.0189 41.9414C11.9757 42.936 11.9853 43.7173 12.0408 44.2977C12.086 44.77 12.1562 45.0392 12.209 45.1735C12.2299 45.1801 12.2563 45.1875 12.2887 45.1953C12.4832 45.2419 12.7922 45.2782 13.241 45.2887L13.2509 45.2889L13.2607 45.2894C13.6863 45.3096 13.9966 45.2892 14.2105 45.2464C14.4064 45.2072 14.466 45.1605 14.4669 45.1604C14.5625 45.0646 14.6223 44.9913 14.6573 44.9402C14.6726 44.9178 14.6806 44.9033 14.6841 44.8965C14.7144 44.7789 14.7593 44.6403 14.8323 44.509C14.8896 44.4058 15.0133 44.2184 15.241 44.0994C16.2175 43.4802 17.1768 42.9454 18.1189 42.4965C20.3437 41.3959 22.3022 40.7797 23.9656 40.7308L24.316 40.7205L30.889 47.2934L29.6213 47.7C28.5407 48.0467 27.2206 48.5984 25.655 49.3648C25.6472 49.3805 25.638 49.4005 25.6276 49.4256C25.576 49.5503 25.5185 49.7436 25.4637 50.0226C25.3543 50.5797 25.2739 51.38 25.2306 52.4424L25.2302 52.4507L25.2297 52.4589C25.1648 53.5191 25.1675 54.3274 25.2269 54.902C25.2566 55.1892 25.2983 55.3948 25.3421 55.5336C25.3685 55.6171 25.3901 55.6584 25.3983 55.6731C25.4159 55.6857 25.4626 55.7139 25.5606 55.7433C25.6938 55.7833 25.8899 55.8157 26.1644 55.8251C26.6509 55.8419 26.9762 55.7819 27.1852 55.6968C27.4404 55.4522 27.8336 55.1052 28.351 54.6644L28.3827 54.6374L28.4169 54.6138C29.0028 54.2102 29.8776 53.8185 30.9851 53.427C32.1064 53.0305 33.5192 52.6163 35.2168 52.1836L35.6649 52.0694L40.4745 56.8789L39.0825 57.2269C38.063 57.4818 36.7374 57.9011 35.0981 58.4913L35.0949 58.4924L35.0918 58.4935C34.2523 58.7879 33.6053 59.0361 33.1425 59.2389C32.9108 59.3404 32.736 59.4259 32.6113 59.4954C32.5388 59.5359 32.4959 59.564 32.4737 59.5794C32.4628 59.6003 32.4425 59.6418 32.4156 59.7125C32.3598 59.8593 32.2966 60.0739 32.2295 60.3682C32.0956 60.9553 31.962 61.7874 31.8312 62.8771L31.8303 62.8851L31.8291 62.893C31.6767 63.9819 31.6058 64.7912 31.6058 65.3401C31.6058 65.5739 31.6189 65.7356 31.6357 65.8395C31.9348 66.0094 32.3628 66.1521 32.9561 66.2369L32.9595 66.2374L32.9629 66.2379C33.4356 66.3095 33.7354 66.3059 33.9107 66.2819C33.9871 65.9688 34.1173 65.607 34.3807 65.3437C34.5003 65.224 34.6371 65.1381 34.7788 65.0798C35.6854 64.5849 36.655 64.1584 37.6862 63.7993C39.9766 62.9517 42.3372 62.4115 44.7663 62.1788C45.9478 59.3542 46.5825 57.8257 46.6818 57.5674L46.6829 57.5646L46.684 57.5618C47.0641 56.5951 47.2984 55.8726 47.4056 55.3758C47.4494 55.1725 47.4663 55.0319 47.4698 54.9422L22.9007 30.373C22.7439 30.3856 22.4943 30.4322 22.1332 30.5323ZM47.4667 54.8471C47.4669 54.8469 47.4678 54.8509 47.4687 54.8599C47.4669 54.8518 47.4664 54.8473 47.4667 54.8471ZM31.6616 65.949C31.6614 65.9495 31.6592 65.9446 31.6557 65.9328C31.6601 65.9427 31.6619 65.9485 31.6616 65.949ZM12.4714 38.2543C12.4713 38.2543 12.4726 38.2531 12.4754 38.2506C12.4729 38.2531 12.4715 38.2544 12.4714 38.2543Z" fill="#231F20"/>
</g>
<defs>
<clipPath id="clip0">
<rect width="96" height="96" fill="white"/>
</clipPath>
</defs>
</svg>
